<svg width="101" height="30" viewBox="0 0 101 30" fill="none" xmlns="http://www.w3.org/2000/svg">
<path d="M6.388 8.66V13.772H14.632V18.524H6.388V24.068H15.712V29H0.232V3.728H15.712V8.66H6.388ZM25.8646 12.26C26.5846 11.156 27.4846 10.292 28.5646 9.668C29.6446 9.02 30.8446 8.696 32.1646 8.696V15.212H30.4726C28.9366 15.212 27.7846 15.548 27.0166 16.22C26.2486 16.868 25.8646 18.02 25.8646 19.676V29H19.7086V8.912H25.8646V12.26ZM38.203 6.824C37.123 6.824 36.235 6.512 35.539 5.888C34.867 5.24 34.531 4.448 34.531 3.512C34.531 2.552 34.867 1.76 35.539 1.136C36.235 0.487998 37.123 0.163998 38.203 0.163998C39.259 0.163998 40.123 0.487998 40.795 1.136C41.491 1.76 41.839 2.552 41.839 3.512C41.839 4.448 41.491 5.24 40.795 5.888C40.123 6.512 39.259 6.824 38.203 6.824ZM41.263 8.912V29H35.107V8.912H41.263ZM44.5002 18.956C44.5002 16.868 44.9202 15.044 45.7602 13.484C46.6242 11.924 47.8122 10.724 49.3242 9.884C50.8602 9.044 52.6122 8.624 54.5802 8.624C57.1002 8.624 59.2002 9.284 60.8802 10.604C62.5842 11.924 63.7002 13.784 64.2282 16.184H57.6762C57.1242 14.648 56.0562 13.88 54.4722 13.88C53.3442 13.88 52.4442 14.324 51.7722 15.212C51.1002 16.076 50.7642 17.324 50.7642 18.956C50.7642 20.588 51.1002 21.848 51.7722 22.736C52.4442 23.6 53.3442 24.032 54.4722 24.032C56.0562 24.032 57.1242 23.264 57.6762 21.728H64.2282C63.7002 24.08 62.5842 25.928 60.8802 27.272C59.1762 28.616 57.0762 29.288 54.5802 29.288C52.6122 29.288 50.8602 28.868 49.3242 28.028C47.8122 27.188 46.6242 25.988 45.7602 24.428C44.9202 22.868 44.5002 21.044 44.5002 18.956ZM79.7971 29L73.6771 20.576V29H67.5211V2.36H73.6771V17.084L79.7611 8.912H87.3571L79.0051 18.992L87.4291 29H79.7971Z" fill="white"/>
<rect x="93" y="21" width="8" height="8" fill="#FC6060"/>
</svg>


